<?xml version="1.0" encoding="utf-8"?>
<svg version="1.1" xmlns="http://www.w3.org/2000/svg" width="2000" height="2000">
  <path d="M 425.84 742.612 C 426.873 742.607 427.907 742.601 428.971 742.596 C 432.403 742.581 435.835 742.588 439.267 742.596 C 441.74 742.59 444.213 742.583 446.686 742.575 C 452.688 742.559 458.69 742.557 464.692 742.562 C 469.575 742.566 474.457 742.565 479.339 742.559 C 480.036 742.559 480.733 742.558 481.451 742.557 C 482.867 742.555 484.284 742.554 485.7 742.552 C 498.957 742.539 512.215 742.544 525.472 742.556 C 537.578 742.566 549.684 742.553 561.789 742.529 C 574.246 742.504 586.702 742.495 599.159 742.501 C 606.142 742.505 613.124 742.503 620.107 742.485 C 626.675 742.469 633.243 742.474 639.811 742.492 C 642.215 742.496 644.619 742.493 647.022 742.482 C 665.255 742.409 680.192 743.422 694.437 756.183 C 702.137 764.104 709.113 775.216 709.131 786.556 C 709.135 787.47 709.139 788.385 709.143 789.327 C 709.142 790.328 709.141 791.329 709.14 792.36 C 709.145 793.959 709.145 793.959 709.149 795.591 C 709.158 799.176 709.159 802.761 709.161 806.346 C 709.166 808.911 709.171 811.477 709.176 814.043 C 709.189 821.022 709.196 828.002 709.2 834.981 C 709.203 839.341 709.207 843.701 709.212 848.061 C 709.224 860.138 709.234 872.215 709.237 884.292 C 709.238 885.065 709.238 885.837 709.238 886.634 C 709.238 887.408 709.239 888.183 709.239 888.981 C 709.239 890.551 709.24 892.121 709.24 893.691 C 709.24 894.469 709.241 895.248 709.241 896.05 C 709.245 908.659 709.262 921.269 709.285 933.878 C 709.309 946.83 709.322 959.782 709.323 972.735 C 709.324 980.004 709.329 987.274 709.348 994.543 C 709.365 1001.38 709.366 1008.22 709.357 1015.07 C 709.357 1017.57 709.361 1020.08 709.371 1022.59 C 709.384 1026.02 709.378 1029.45 709.367 1032.88 C 709.379 1034.36 709.379 1034.36 709.392 1035.87 C 709.259 1054.57 698.794 1066.96 686.155 1079.48 C 684.859 1080.78 683.564 1082.08 682.269 1083.38 C 678.779 1086.89 675.273 1090.38 671.763 1093.88 C 668.077 1097.54 664.405 1101.23 660.73 1104.9 C 654.561 1111.08 648.382 1117.24 642.197 1123.4 C 635.062 1130.5 627.943 1137.62 620.833 1144.75 C 613.97 1151.63 607.096 1158.49 600.216 1165.36 C 597.299 1168.27 594.385 1171.18 591.474 1174.1 C 588.043 1177.54 584.603 1180.97 581.154 1184.39 C 579.896 1185.64 578.64 1186.9 577.389 1188.15 C 569.222 1196.36 561.344 1203.53 550.125 1207.31 C 549.241 1207.62 548.356 1207.92 547.445 1208.24 C 543.848 1209.36 540.683 1210.12 536.902 1210.13 C 536.09 1210.13 535.278 1210.14 534.441 1210.14 C 533.554 1210.14 532.668 1210.14 531.754 1210.14 C 530.808 1210.14 529.861 1210.15 528.886 1210.15 C 525.707 1210.16 522.527 1210.16 519.347 1210.16 C 517.071 1210.16 514.794 1210.17 512.518 1210.18 C 506.325 1210.19 500.132 1210.19 493.94 1210.2 C 490.07 1210.2 486.199 1210.21 482.329 1210.21 C 471.604 1210.22 460.88 1210.23 450.155 1210.24 C 449.468 1210.24 448.782 1210.24 448.075 1210.24 C 447.387 1210.24 446.699 1210.24 445.991 1210.24 C 444.597 1210.24 443.203 1210.24 441.809 1210.24 C 440.772 1210.24 440.772 1210.24 439.714 1210.24 C 428.525 1210.24 417.337 1210.26 406.148 1210.29 C 394.649 1210.31 383.15 1210.32 371.651 1210.32 C 365.2 1210.32 358.748 1210.33 352.297 1210.35 C 346.223 1210.36 340.149 1210.37 334.075 1210.36 C 331.852 1210.36 329.628 1210.36 327.405 1210.37 C 308.446 1210.45 293.413 1208.88 278.75 1195.56 C 269.712 1186.09 264.854 1174.14 264.846 1161.18 C 264.842 1160.28 264.837 1159.38 264.833 1158.45 C 264.819 1155.42 264.813 1152.4 264.807 1149.37 C 264.799 1147.21 264.791 1145.04 264.782 1142.87 C 264.756 1135.75 264.741 1128.63 264.726 1121.5 C 264.721 1119.05 264.716 1116.6 264.71 1114.14 C 264.689 1103.93 264.67 1093.72 264.659 1083.51 C 264.642 1068.89 264.609 1054.27 264.552 1039.64 C 264.513 1029.36 264.494 1019.07 264.489 1008.78 C 264.485 1002.64 264.473 996.505 264.441 990.365 C 264.41 984.583 264.404 978.801 264.416 973.018 C 264.416 970.903 264.408 968.788 264.39 966.673 C 264.299 955.073 264.537 945.502 270 935 C 270.331 934.362 270.662 933.725 271.003 933.069 C 271.851 931.576 272.805 930.145 273.765 928.722 C 274.477 927.653 275.189 926.583 275.922 925.48 C 276.698 924.341 277.474 923.202 278.25 922.062 C 279.083 920.818 279.915 919.572 280.745 918.326 C 282.539 915.637 284.338 912.952 286.141 910.269 C 290.662 903.531 295.102 896.74 299.553 889.956 C 302.212 885.907 304.875 881.862 307.539 877.816 C 308.619 876.176 309.698 874.535 310.778 872.895 C 311.312 872.084 311.845 871.274 312.394 870.439 C 316.06 864.869 319.725 859.299 323.389 853.728 C 325.463 850.575 327.538 847.422 329.612 844.269 C 334.886 836.254 340.158 828.238 345.426 820.218 C 351.116 811.556 356.814 802.899 362.519 794.246 C 363.993 792.01 365.467 789.772 366.94 787.535 C 369.253 784.025 371.572 780.518 373.895 777.014 C 374.742 775.735 375.588 774.454 376.432 773.172 C 387.886 755.784 387.886 755.784 396.687 750.25 C 397.236 749.877 397.784 749.505 398.349 749.121 C 406.728 743.75 416.079 742.55 425.84 742.612 Z M 513 905 C 504.5 903.64 496.25 902.32 488 901 C 488 922.08 488 942.54 488 963 C 503.582 970.791 521.125 971.149 538.14 971.239 C 538.921 971.243 539.679 971.246 540.437 971.25 C 550.425 971.323 560.038 971.32 569.625 968.125 C 570.432 967.742 571.216 967.371 572 967 C 577.372 964.694 581.816 961.953 586.117 957.965 C 595.215 948.471 598.436 936.701 598.497 923.752 C 598.475 921.854 598.454 919.956 598.452 918.059 C 598.458 914.518 598.45 910.979 598.423 907.439 C 598.393 903.688 598.381 899.938 598.376 896.188 C 598.367 889.096 598.342 882.005 598.302 874.914 C 598.247 865.179 598.219 855.444 598.195 845.709 C 598.161 831.581 598.161 831.581 598 798 C 569.1 798 541.05 798 513 798 C 513 834.38 513 869.69 513 905 Z" fill="#0A1653"/>
  <path d="M 1579.75 850.625 C 1581.09 850.625 1581.09 850.625 1582.46 850.625 C 1602.58 850.663 1622.91 852.132 1642 859 C 1643.2 859.431 1644.4 859.861 1645.64 860.305 C 1679.36 872.899 1703.04 896.424 1718 929 C 1734.68 967.848 1736.16 1012.77 1730 1054 C 1729.79 1055.53 1729.59 1057.07 1729.38 1058.6 C 1725.11 1088.06 1711.47 1115.56 1691 1137 C 1690.47 1137.59 1689.95 1138.18 1689.41 1138.78 C 1668.36 1161.49 1635.87 1171.63 1606 1175 C 1604.77 1175.17 1603.53 1175.34 1602.26 1175.51 C 1564.61 1180.22 1521.56 1173.82 1490.39 1151.1 C 1487.87 1149.12 1485.43 1147.09 1483 1145 C 1482.15 1144.28 1481.31 1143.55 1480.44 1142.81 C 1451.4 1117.36 1436.62 1078.01 1434 1040 C 1432.73 1013.75 1432.36 986.776 1438 961 C 1438.21 959.992 1438.43 958.985 1438.65 957.947 C 1443.88 934.07 1453.3 910.222 1470 892 C 1470.83 891.087 1471.66 890.175 1472.52 889.234 C 1500.71 859.677 1540.13 850.542 1579.75 850.625 Z M 1640.91 940.164 C 1610.63 915.128 1551.67 915.002 1522.75 942.875 C 1504.66 962.147 1497.51 985.907 1497.69 1011.96 C 1497.72 1014.35 1497.75 1016.73 1497.76 1019.12 C 1497.76 1020.72 1497.77 1022.32 1497.78 1023.91 C 1497.79 1024.69 1497.79 1025.44 1497.8 1026.2 C 1497.81 1028.81 1497.88 1031.39 1498 1034 C 1501.17 1053.24 1509.44 1073.87 1524.89 1086.39 C 1525.96 1087.2 1525.96 1087.2 1527 1088 C 1541.59 1099.74 1559.43 1104.45 1577.97 1104.36 C 1580.02 1104.34 1582.07 1104.31 1584.12 1104.32 C 1607.1 1104.39 1628.07 1099.35 1645 1083 C 1661.54 1065.36 1669.5 1042.38 1669.31 1018.44 C 1669.28 1016.3 1669.25 1014.17 1669.24 1012.03 C 1669.21 1001.75 1669.25 991.543 1666.39 981.584 C 1666.17 980.876 1665.96 980.188 1665.75 979.5 C 1664.05 973.874 1662.2 968.506 1659.37 963.328 C 1658.9 962.537 1658.45 961.768 1658 961 C 1653.26 952.753 1648.03 946.427 1640.91 940.164 Z" fill="#4E75FE"/>
  <path d="M 1091 926 C 1092.33 926.182 1092.33 926.182 1093.69 926.367 C 1116.76 929.654 1136.72 944.335 1150.8 962.293 C 1162.63 978.494 1177.64 1004.18 1176 1025 C 1175.01 1028.11 1174.06 1028.96 1171.25 1030.74 C 1163.46 1034.54 1155.7 1037.74 1147.44 1040.43 C 1143.96 1041.57 1140.48 1042.75 1137 1043.92 C 1136.27 1044.17 1135.54 1044.42 1134.79 1044.67 C 1126.28 1047.56 1117.86 1050.68 1109.44 1053.81 C 1099.7 1057.43 1089.97 1061.03 1080.18 1064.51 C 1079.37 1064.8 1078.56 1065.09 1077.72 1065.39 C 1076.09 1065.97 1074.45 1066.55 1072.82 1067.13 C 1053.39 1074.04 1034.17 1081.41 1015 1089 C 1014.7 1096.8 1020.22 1101.74 1025.08 1107.43 C 1038.26 1121.52 1057.89 1129.51 1077 1130.21 C 1100.63 1130.78 1121.13 1125.16 1141.51 1113.2 C 1146.62 1110.31 1150.1 1109.15 1156 1110 C 1160.02 1112.74 1161.81 1117.08 1163.88 1121.38 C 1164.22 1122.08 1164.56 1122.78 1164.91 1123.5 C 1165.95 1125.66 1166.98 1127.83 1168 1130 C 1168.31 1130.66 1168.63 1131.32 1168.95 1132 C 1174.75 1144.33 1174.75 1144.33 1174 1151 C 1166.15 1163.02 1145.86 1168.55 1133 1173 C 1131.95 1173.38 1131.95 1173.38 1130.87 1173.76 C 1125.38 1175.68 1119.9 1176.98 1114.19 1178.06 C 1113.38 1178.22 1112.56 1178.38 1111.72 1178.55 C 1110.03 1178.88 1108.34 1179.2 1106.64 1179.51 C 1104.89 1179.84 1103.14 1180.18 1101.39 1180.55 C 1092.51 1182.29 1083.69 1182.37 1074.68 1182.37 C 1072.03 1182.38 1069.39 1182.41 1066.75 1182.45 C 1031.94 1182.68 1000 1170.05 974.875 1145.92 C 958.731 1129.84 950.1 1109.04 944.75 1087.25 C 944.586 1086.59 944.423 1085.93 944.254 1085.25 C 936.305 1050.81 942.259 1009.99 961 980 C 961.352 979.432 961.704 978.864 962.067 978.279 C 977.598 953.697 1002.11 935.933 1030 928 C 1031.26 927.629 1032.52 927.258 1033.81 926.875 C 1052.24 922.698 1072.48 922.177 1091 926 Z M 1024.91 992.773 C 1024.26 993.53 1023.63 994.265 1023 995 C 1009.08 1010.55 1004.59 1030.73 1004 1051 C 1006.23 1051 1006.23 1051 1011.74 1049.12 C 1012.56 1048.84 1013.35 1048.56 1014.14 1048.29 C 1016.77 1047.39 1019.39 1046.49 1022.01 1045.59 C 1023.89 1044.94 1025.76 1044.3 1027.63 1043.66 C 1031.42 1042.36 1035.21 1041.05 1039 1039.75 C 1043.07 1038.35 1047.13 1036.95 1051.2 1035.57 C 1071.56 1028.62 1091.79 1021.35 1112 1014 C 1112 1010 1112 1010 1110.7 1007.55 C 1110.12 1006.69 1109.56 1005.84 1109 1005 C 1105.4 999.453 1101.7 994.2 1096.86 989.656 C 1095.92 988.82 1095.92 988.82 1095 988 C 1092.89 986.073 1090.77 984.282 1088.48 982.578 C 1068.84 970.062 1040.07 976.296 1024.91 992.773 Z" fill="#4E75FE"/>
  <path d="M0 0 C1.59229179 -0.01925285 1.59229179 -0.01925285 3.2167511 -0.03889465 C4.93706795 -0.04997505 4.93706795 -0.04997505 6.69213867 -0.0612793 C8.46230598 -0.07338692 8.46230598 -0.07338692 10.26823425 -0.08573914 C12.76734956 -0.09957719 15.26648375 -0.11030059 17.765625 -0.11816406 C21.58459301 -0.13538301 25.40269681 -0.17927417 29.22143555 -0.22338867 C31.64916356 -0.2335151 34.07689892 -0.24203136 36.50463867 -0.2487793 C37.64544388 -0.26628738 38.78624908 -0.28379547 39.96162415 -0.30183411 C46.17503375 -0.28486117 50.17837325 -0.18095573 54.79760742 4.17700195 C56.799687 7.36396063 57.04336396 9.81774602 57.02961731 13.54908752 C57.03045885 14.65551416 57.03130039 15.7619408 57.03216743 16.90189552 C57.02284124 18.12778074 57.01351505 19.35366596 57.00390625 20.61669922 C57.00196196 21.93496389 57.00001766 23.25322857 56.99801445 24.61144066 C56.9922887 28.33626298 56.97392939 32.06093783 56.95379615 35.78570628 C56.93383417 39.88719246 56.92541577 43.98870418 56.91572571 48.09022522 C56.89924808 54.56561785 56.87835641 61.04097695 56.8532595 67.51634187 C56.801155 80.97729908 56.77303269 94.43823365 56.75060821 107.89926982 C56.71013187 132.11022725 56.64882598 156.32107502 56.5685802 180.53192987 C56.55734602 183.92216519 56.54622051 187.31240085 56.53515625 190.70263672 C56.53185195 191.71251067 56.53185195 191.71251067 56.5284809 192.74278612 C56.49260335 203.79824928 56.46797639 214.85371173 56.4472604 225.90921252 C56.42542278 237.44237668 56.39215119 248.97546021 56.34890586 260.50856501 C56.32521237 266.91324755 56.306324 273.31785283 56.29999352 279.72257805 C56.29391181 285.69651366 56.27380212 291.67024456 56.24333191 297.644104 C56.23462933 299.81431719 56.23081268 301.98455716 56.23259926 304.15478706 C56.24272095 322.13296086 54.65652282 339.47451303 49.61010742 356.80200195 C49.3089502 357.85049316 49.00779297 358.89898438 48.69750977 359.97924805 C38.66005386 393.74159974 17.82998474 422.03343507 -13.03833008 439.35668945 C-27.12819465 446.96189358 -42.51062097 451.30144672 -58.20239258 454.17700195 C-59.28520508 454.38196289 -60.36801758 454.58692383 -61.48364258 454.7980957 C-72.72875709 456.81609274 -72.72875709 456.81609274 -77.20239258 456.17700195 C-80.36193563 453.63563037 -81.91780144 452.03077536 -83.20239258 448.17700195 C-83.29871461 445.80093723 -83.33314262 443.42220485 -83.33520508 441.04418945 C-83.33670563 440.33893631 -83.33820618 439.63368317 -83.3397522 438.90705872 C-83.34210444 436.62198173 -83.33587224 434.33706314 -83.32739258 432.05200195 C-83.325177 431.28022614 -83.32296143 430.50845032 -83.32067871 429.71328735 C-83.2583759 411.35672211 -83.2583759 411.35672211 -82.95239258 403.86450195 C-82.8827832 402.04499023 -82.8827832 402.04499023 -82.81176758 400.1887207 C-82.07198207 396.5324731 -80.81387448 394.80733932 -78.20239258 392.17700195 C-74.50110565 390.46344319 -70.92667438 389.37084866 -66.99145508 388.31762695 C-49.86084041 383.70408393 -35.32898065 375.95639238 -26.20239258 360.17700195 C-22.55345751 353.70748202 -20.42921455 346.93790946 -18.51489258 339.80200195 C-18.31234863 339.04798096 -18.10980469 338.29395996 -17.90112305 337.51708984 C-15.06226457 326.35935792 -13.90478202 315.38167348 -13.95756531 303.88526917 C-13.95530073 302.61249381 -13.95303616 301.33971845 -13.95070297 300.02837414 C-13.94466618 296.53480016 -13.95079185 293.04134182 -13.95901358 289.54777634 C-13.96565399 285.76530122 -13.96058201 281.98283966 -13.95678711 278.20036316 C-13.95158532 271.65862085 -13.95303884 265.11690825 -13.95856285 258.5751667 C-13.96680553 248.2347333 -13.95552013 237.89436326 -13.94136047 227.55393982 C-13.9367606 224.01072422 -13.93231009 220.46750844 -13.92792225 216.92429256 C-13.92682411 216.03910167 -13.92572597 215.15391077 -13.92459455 214.2418959 C-13.91244392 204.18779636 -13.90487433 194.1336948 -13.89892578 184.07958984 C-13.89837772 183.16142465 -13.89782966 182.24325945 -13.89726499 181.29727107 C-13.88879027 166.39033496 -13.89215299 151.48341686 -13.89808013 136.57648063 C-13.90369447 121.2552924 -13.89018422 105.9341951 -13.86052734 90.61303467 C-13.84298413 81.16970799 -13.84135523 71.72664417 -13.86017249 62.28331869 C-13.87176433 55.81937994 -13.86535358 49.35561898 -13.84470328 42.89170337 C-13.83336921 39.16219493 -13.83023861 35.43314448 -13.84887886 31.70365524 C-13.86889312 27.66201906 -13.85041361 23.62147332 -13.82817078 19.57984924 C-13.84020827 18.39999988 -13.85224577 17.22015051 -13.86464804 16.00454813 C-13.76507928 7.16319633 -13.76507928 7.16319633 -10.85078144 3.464324 C-7.20910458 0.31913339 -4.64928926 0.04897417 0 0 Z " fill="#4F76FE" transform="translate(859.202392578125,797.822998046875)"/>
  <path d="M0 0 C1.04481033 -0.01283524 2.08962067 -0.02567047 3.16609192 -0.03889465 C4.29939438 -0.04628159 5.43269684 -0.05366852 6.6003418 -0.0612793 C8.34289497 -0.07338692 8.34289497 -0.07338692 10.12065125 -0.08573914 C12.58286034 -0.09958831 15.04508871 -0.11030672 17.50732422 -0.11816406 C21.27372595 -0.13537996 25.03925087 -0.17926062 28.80541992 -0.22338867 C31.19538741 -0.23351502 33.58536238 -0.2420313 35.9753418 -0.2487793 C37.10257156 -0.26628738 38.22980133 -0.28379547 39.39118958 -0.30183411 C47.19450244 -0.28018008 47.19450244 -0.28018008 51.17529297 2.01611328 C54.23115059 5.66082367 54.11341994 8.7652971 54.11848831 13.3546648 C54.12232946 14.6562443 54.1261706 15.95782381 54.13012815 17.29884511 C54.12934785 18.75186786 54.12846906 20.20489057 54.12750244 21.65791321 C54.13008525 23.19477751 54.13309817 24.73164115 54.13650584 26.26850384 C54.144589 30.50293251 54.14636614 34.73734424 54.14710331 38.9717797 C54.14895157 43.53426118 54.15649773 48.09673382 54.16323853 52.65921021 C54.17683148 62.64052085 54.182848 72.62182748 54.18724918 82.60314584 C54.19000985 88.83272846 54.19424687 95.06230953 54.19875336 101.2918911 C54.21094703 118.53192834 54.22124631 135.77196434 54.22462845 153.01200581 C54.2249578 154.6677122 54.2249578 154.6677122 54.2252938 156.35686721 C54.22562122 158.01658502 54.22562122 158.01658502 54.22595525 159.70983249 C54.22639872 161.95206281 54.22684528 164.19429312 54.22729492 166.43652344 C54.22751635 167.54875238 54.22773778 168.66098132 54.22796592 169.80691417 C54.2319151 187.83459775 54.24937234 205.86224092 54.27265444 223.88990889 C54.29635216 242.38833745 54.30882957 260.88674572 54.30999637 279.38518971 C54.31091399 289.77556157 54.31668829 300.16588079 54.33481598 310.55623817 C54.35019563 319.40279994 54.35535006 328.24929282 54.34707788 337.09586541 C54.34316385 341.6110006 54.34413757 346.12599696 54.35813522 350.64111519 C54.37082906 354.77338524 54.3697166 358.9054115 54.35754451 363.03768101 C54.35557965 364.53365281 54.3587022 366.02964163 54.36738887 367.5255895 C54.37844276 369.55763676 54.36922407 371.5897641 54.35899734 373.62181568 C54.35959443 374.75099661 54.36019152 375.88017753 54.3608067 377.04357606 C53.92888693 380.66471996 52.87363139 383.07100662 50.98706055 386.17700195 C47.63719201 388.09613277 44.7265086 388.43125666 40.90893555 388.45166016 C39.92441406 388.46119217 38.93989258 388.47072418 37.92553711 388.48054504 C36.87333984 388.47963364 35.82114258 388.47872223 34.73706055 388.4777832 C33.64619141 388.48206833 32.55532227 388.48635345 31.43139648 388.49076843 C29.12834364 388.49650341 26.82527269 388.49701814 24.5222168 388.49267578 C20.99976749 388.48951336 17.47815623 388.51299477 13.95581055 388.53833008 C11.71622827 388.5406029 9.47664374 388.54130665 7.23706055 388.5402832 C6.18486328 388.54949295 5.13266602 388.5587027 4.04858398 388.56819153 C-5.43592698 388.5081857 -5.43592698 388.5081857 -9.01293945 385.17700195 C-10.96266232 381.27552382 -11.26481396 378.06733109 -11.27020836 373.73483276 C-11.27665725 372.42517107 -11.28310614 371.11550938 -11.28975046 369.76616096 C-11.28680824 368.31440314 -11.28367281 366.86264571 -11.28036499 365.41088867 C-11.28410133 363.86745926 -11.28870278 362.32403174 -11.29409564 360.78060722 C-11.3063427 356.53734676 -11.30606317 352.29416504 -11.30370688 348.05089092 C-11.30329916 343.47550424 -11.31433349 338.90014295 -11.32382202 334.32476807 C-11.34044138 325.36079811 -11.34593195 316.39685446 -11.34704678 307.43287039 C-11.34799663 300.14898904 -11.35210374 292.86511639 -11.35844803 285.58123779 C-11.37606149 264.93986682 -11.38528651 244.29851665 -11.38378708 223.65713811 C-11.38370717 222.5441424 -11.38362726 221.43114668 -11.38354492 220.28442383 C-11.38346316 219.17007296 -11.3833814 218.0557221 -11.38329716 216.90760303 C-11.3824838 198.8373215 -11.4016338 180.76712323 -11.42982166 162.6968658 C-11.45852212 144.1520439 -11.47236358 125.60726266 -11.4706341 107.06241798 C-11.46996931 96.64694325 -11.47550077 86.23155584 -11.4969902 75.81610107 C-11.51516451 66.95050889 -11.51958016 58.08504364 -11.50597136 49.21944094 C-11.49942323 44.69425244 -11.49939078 40.16930774 -11.51667786 35.64414215 C-11.53233213 31.50391723 -11.52962393 27.36413096 -11.51210959 23.22391725 C-11.50902278 21.72398575 -11.51273494 20.22402213 -11.52382974 18.72412848 C-11.53788872 16.68918657 -11.52500853 14.65411144 -11.51071739 12.61917114 C-11.51115213 11.48765688 -11.51158686 10.35614262 -11.51203477 9.19034004 C-10.90078664 5.49986811 -9.59124867 3.83655013 -7.01293945 1.17700195 C-4.51695603 -0.07098976 -2.79304723 0.02982086 0 0 Z " fill="#5076FE" transform="translate(1226.012939453125,787.822998046875)"/>
  <path d="M0 0 C1.5672155 -0.02409439 1.5672155 -0.02409439 3.16609192 -0.04867554 C7.94649661 -0.09306697 12.72676171 -0.13418771 17.50732422 -0.15722656 C20.03020446 -0.17379347 22.55303764 -0.20109274 25.07568359 -0.23925781 C28.70915124 -0.2939608 32.34151808 -0.3158914 35.9753418 -0.33056641 C37.10257156 -0.35323578 38.22980133 -0.37590515 39.39118958 -0.39926147 C40.9725898 -0.39498642 40.9725898 -0.39498642 42.5859375 -0.390625 C43.97254326 -0.40275528 43.97254326 -0.40275528 45.38716125 -0.41513062 C49.13198102 0.46061747 50.5572541 2.2600034 52.98706055 5.19287109 C53.6126557 8.23300797 53.6126557 8.23300797 53.61347294 11.70030308 C53.62044055 12.34307917 53.62740815 12.98585525 53.6345869 13.64810941 C53.65185296 15.80520271 53.63345715 17.96050481 53.61524963 20.11756897 C53.62029407 21.67821631 53.6275221 23.23885787 53.63674778 24.7994861 C53.65571175 29.09045594 53.64341323 33.38085744 53.62602484 37.67181313 C53.61267599 42.29832441 53.62807894 46.92475115 53.6398468 51.55125427 C53.65824589 60.61522302 53.64969614 69.6789765 53.63175858 78.74293859 C53.61774562 86.10740848 53.61383697 93.47181985 53.61720085 100.8363018 C53.61767829 101.88355601 53.61815574 102.93081022 53.61864765 104.0097994 C53.61967395 106.13711482 53.62072931 108.26443023 53.62181341 110.39174562 C53.63038496 129.2109953 53.61369025 148.03014088 53.58398438 166.84936523 C53.55514177 185.12187064 53.5480648 203.39422611 53.56347656 221.66674805 C53.58022637 241.5529924 53.58428571 261.43916554 53.5667662 281.32541174 C53.56492176 283.4446932 53.56308704 285.56397467 53.56126213 287.68325615 C53.56035004 288.72605204 53.55943795 289.76884794 53.55849822 290.84324371 C53.55288555 298.20174744 53.55620677 305.56021648 53.56280708 312.91871834 C53.57052754 321.88207565 53.56383411 330.84528519 53.53863204 339.80861265 C53.5261075 344.38429385 53.52002614 348.95974465 53.53117371 353.53543472 C53.54117771 357.72065659 53.53283916 361.90541792 53.50959253 366.0905835 C53.50441181 367.60798403 53.50603341 369.12542548 53.51498718 370.64280844 C53.52611776 372.69952306 53.51282297 374.75466283 53.49321842 376.81128025 C53.49202694 377.95532528 53.49083546 379.09937032 53.48960787 380.27808338 C52.87358951 383.85100608 51.82441053 385.00332832 48.98706055 387.19287109 C46.06097057 388.16823442 44.096016 388.34135767 41.04418945 388.38574219 C39.53714951 388.40983658 39.53714951 388.40983658 37.99966431 388.43441772 C33.41506681 388.47891102 28.83061241 388.51991409 24.24584961 388.54296875 C21.82680656 388.55954644 19.40781284 388.58685991 16.98901367 388.625 C13.50112502 388.67970638 10.01438266 388.7016321 6.52612305 388.71630859 C5.44577789 388.73897797 4.36543274 388.76164734 3.25234985 388.78500366 C-4.24387806 388.76387154 -4.24387806 388.76387154 -8.17163086 385.84765625 C-10.98898474 381.7856162 -11.13952665 378.82951067 -11.14716053 373.99679756 C-11.15161837 372.69111796 -11.15607622 371.38543837 -11.16066915 370.04019272 C-11.16057985 368.58255075 -11.16038999 367.12490879 -11.16011047 365.66726685 C-11.16340893 364.12556486 -11.16713446 362.58386374 -11.17125195 361.04216373 C-11.18128183 356.79440493 -11.18499032 352.54666027 -11.18764126 348.29889131 C-11.19154128 343.72211241 -11.20111969 339.14534474 -11.20985413 334.568573 C-11.22962507 323.51149454 -11.23968465 312.45441515 -11.24858192 301.39732343 C-11.25296299 296.19383548 -11.25833019 290.99034856 -11.26357079 285.78686142 C-11.2805822 268.49621097 -11.29507793 251.20556117 -11.30231953 233.91490364 C-11.3042295 229.42699304 -11.30614982 224.93908245 -11.30810547 220.45117188 C-11.30858921 219.33569001 -11.30907295 218.22020814 -11.30957135 217.07092379 C-11.3178775 198.98758622 -11.34322468 180.90431467 -11.37568615 162.82100596 C-11.40872152 144.26721189 -11.42676502 125.71345143 -11.42996377 107.1596278 C-11.43213192 96.73741046 -11.44092532 86.31528947 -11.46642494 75.89310074 C-11.48808371 67.02014722 -11.49620614 58.14731343 -11.48645816 49.27433647 C-11.48189968 44.74510662 -11.4838892 40.21612406 -11.5032196 35.6869278 C-11.52075377 31.54293033 -11.51993356 27.39936235 -11.50432231 23.25536095 C-11.50193135 21.75402052 -11.50634634 20.25265111 -11.51815096 18.75135519 C-11.53317823 16.71449834 -11.52125707 14.67749555 -11.50792408 12.64062691 C-11.50890089 11.5080285 -11.5098777 10.37543009 -11.51088411 9.20851052 C-10.90113924 5.51578956 -9.5928977 3.85346821 -7.01293945 1.19287109 C-4.52010171 -0.05354778 -2.78953132 0.03890874 0 0 Z " fill="#4E75FE" transform="translate(1342.012939453125,787.80712890625)"/>
  <path d="M0 0 C28.05 0 56.1 0 85 0 C85.16121214 33.58138373 85.16121214 33.58138373 85.1953125 47.70898438 C85.21899978 57.44401529 85.24676846 67.17890719 85.30175781 76.91381836 C85.34179618 84.00533594 85.367473 91.09674019 85.37635398 98.18836766 C85.38154018 101.93867587 85.39361184 105.68866005 85.42292023 109.43886375 C85.45035924 112.97902939 85.45838859 116.51874194 85.45243073 120.05900383 C85.45403144 121.956662 85.4754036 123.85427245 85.49768066 125.75180054 C85.43641131 138.70168542 82.21486094 150.47079865 73.1171875 159.96484375 C68.81652967 163.95349307 64.37231092 166.69423692 59 169 C58.21625 169.37125 57.4325 169.7425 56.625 170.125 C47.03776828 173.32074391 37.42526478 173.32335371 27.4375 173.25 C26.67955139 173.24656586 25.92160278 173.24313171 25.14068604 173.23959351 C8.1254133 173.14893117 -9.41770586 172.79114707 -25 165 C-25 144.54 -25 124.08 -25 103 C-16.75 104.32 -8.5 105.64 0 107 C0 71.69 0 36.38 0 0 Z " fill="#4f76fe" fill-opacity="0.5" transform="translate(513,798)"/>
</svg>
