<?xml version="1.0" encoding="UTF-8"?>
<svg version="1.1" xmlns="http://www.w3.org/2000/svg" width="2000" height="2000">
<path d="M0 0 C660 0 1320 0 2000 0 C2000 660 2000 1320 2000 2000 C1340 2000 680 2000 0 2000 C0 1340 0 680 0 0 Z " fill="#FEFBFB" transform="translate(0,0)"/>
<path d="M0 0 C1.03336506 -0.00538554 2.06673013 -0.01077108 3.13140929 -0.01631981 C6.5633673 -0.03052576 9.99493558 -0.02351379 13.4269104 -0.01637268 C15.90002246 -0.02208009 18.37313188 -0.02904579 20.84623718 -0.03717041 C26.8482961 -0.05321957 32.85020427 -0.05521072 38.85226987 -0.04995751 C43.73462974 -0.04590344 48.61695876 -0.04737398 53.49931717 -0.05270576 C54.19623978 -0.05345419 54.89316238 -0.05420261 55.61120386 -0.05497371 C57.02735348 -0.05650531 58.4435031 -0.05804366 59.85965271 -0.05958868 C73.11726401 -0.07329249 86.37481617 -0.06789104 99.6324261 -0.05640347 C111.73804057 -0.04647395 123.84350213 -0.05941061 135.94909303 -0.08333766 C148.40564661 -0.10777122 160.86212911 -0.11732605 173.31870615 -0.11068493 C180.30150909 -0.10720206 187.28419451 -0.10936279 194.26697922 -0.12693596 C200.83509191 -0.14326176 207.40296117 -0.13841028 213.97108269 -0.11963081 C216.37479155 -0.11595464 218.77852215 -0.11902486 221.18221092 -0.1295166 C239.41456042 -0.20299236 254.35231264 0.81012088 268.59732056 13.5712738 C276.29688951 21.49194524 283.27333304 32.60445134 283.29124832 43.94368935 C283.29508947 44.85813619 283.29893061 45.77258304 283.30288815 46.7147404 C283.30202167 47.71569629 283.30115519 48.71665218 283.30026245 49.74794006 C283.30471913 51.3473192 283.30471913 51.3473192 283.30926585 52.97900903 C283.31796085 56.56397106 283.31946179 60.14889972 283.32095337 63.73387146 C283.32558102 66.29948498 283.33060561 68.86509781 283.33599854 71.43070984 C283.34913071 78.41026093 283.35560599 85.38980101 283.36000919 92.36936235 C283.36277308 96.729406 283.36701075 101.08944744 283.37151337 105.44948959 C283.38370632 117.52624434 283.39400493 129.60299731 283.39738846 141.67975807 C283.39760802 142.45261611 283.39782759 143.22547416 283.39805381 144.02175214 C283.39827209 144.79644152 283.39849037 145.5711309 283.39871526 146.36929572 C283.39915872 147.93906315 283.39960528 149.50883059 283.40005493 151.07859802 C283.40027636 151.85725398 283.40049779 152.63590994 283.40072593 153.43816154 C283.4046716 166.04737144 283.42211844 178.65652347 283.44541445 191.26571102 C283.46915086 204.21809038 283.48159138 217.17044074 283.48275638 230.12284219 C283.48367196 237.3923631 283.48939459 244.66180864 283.50757599 251.93130875 C283.52462423 258.77178202 283.52621246 265.61211025 283.51743698 272.45259857 C283.51666653 274.96076973 283.5210103 277.46894857 283.53089523 279.97710037 C283.54361707 283.40674273 283.53773608 286.83587907 283.52731323 290.26551819 C283.53939784 291.74687553 283.53939784 291.74687553 283.55172658 293.25815928 C283.41925093 311.95582643 272.9543448 324.35211998 260.31484985 336.86375427 C259.01867266 338.16508061 257.72356702 339.46747498 256.42944336 340.77084351 C252.9387097 344.27996943 249.43260283 347.77333747 245.92280936 351.2633872 C242.23745718 354.93225592 238.56481952 358.61381663 234.89024353 362.29347229 C228.72137804 368.46684707 222.54243991 374.62999709 216.35733032 380.78709412 C209.22228843 387.89006835 202.10343922 395.00896133 194.99304074 402.13659847 C188.13002612 409.0155132 181.25571647 415.88303316 174.37623024 422.74547195 C171.45853395 425.65632338 168.54479056 428.57104713 165.63422203 431.48902512 C162.20332386 434.9276222 158.76259091 438.35607515 155.31423569 441.77716255 C154.0555685 443.02898344 152.8002218 444.28415392 151.54859734 445.54301643 C143.3823788 453.75098074 135.50431065 460.92150906 124.28482056 464.70018005 C123.40052368 465.00568787 122.51622681 465.31119568 121.60513306 465.6259613 C118.00797341 466.74648228 114.84343682 467.51237254 111.06230164 467.51910782 C110.25010666 467.52294896 109.43791168 467.52679011 108.60110474 467.53074765 C107.71435059 467.52988117 106.82759644 467.52901469 105.91397095 467.52812195 C104.96755234 467.53109307 104.02113373 467.53406419 103.04603577 467.53712535 C99.86650721 467.54581472 96.6870163 467.54732082 93.50747681 467.54881287 C91.23081888 467.55344099 88.95416174 467.55846564 86.67750549 467.56385803 C80.48498565 467.57698743 74.29247666 467.58342844 68.09994507 467.58786869 C64.22968398 467.59079948 60.35942586 467.59490437 56.48916626 467.59937286 C45.76436445 467.61148379 35.03956653 467.6218643 24.3147583 467.62524796 C23.62846411 467.62546752 22.94216992 467.62568709 22.23507893 467.62591331 C21.54717396 467.62613158 20.85926899 467.62634986 20.15051842 467.62657475 C18.75664647 467.62701821 17.36277453 467.62746478 15.96890259 467.62791443 C14.93179732 467.62824657 14.93179732 467.62824657 13.87374043 467.62858543 C2.68528078 467.63252845 -8.50311354 467.64996678 -19.69154799 467.67327395 C-31.19074416 467.69703408 -42.68989831 467.70919444 -54.18912029 467.71061587 C-60.64046176 467.71166269 -67.09171116 467.71754407 -73.54302979 467.73543549 C-79.61691015 467.7519517 -85.6906296 467.75405434 -91.76452446 467.74529648 C-93.98804595 467.74452792 -96.21157622 467.74884478 -98.43507576 467.75875473 C-117.39360082 467.83826195 -132.427355 466.26779125 -147.09017944 452.95018005 C-156.12786015 443.47448574 -160.98643035 431.52506853 -160.99407959 418.56616211 C-160.99846184 417.66536814 -161.0028441 416.76457417 -161.00735915 415.83648342 C-161.02073723 412.81131051 -161.02692388 409.78616674 -161.03305054 406.76097107 C-161.04095247 404.59430815 -161.04922148 402.42764655 -161.05783081 400.26098633 C-161.08404685 393.13786576 -161.099361 386.01473934 -161.11361694 378.8915863 C-161.11897735 376.43771295 -161.12435486 373.98383963 -161.1297493 371.52996635 C-161.15138004 361.31901464 -161.17011489 351.10806451 -161.18137169 340.89709568 C-161.19759775 326.27546688 -161.23074083 311.65419328 -161.28777254 297.03266007 C-161.32652267 286.74626177 -161.34601058 276.45993454 -161.35129225 266.17346519 C-161.35493955 260.03332391 -161.36689478 253.89346669 -161.39939499 247.75340462 C-161.42956347 241.97081449 -161.43575591 236.18867897 -161.42401123 230.40602684 C-161.42379121 228.29095385 -161.43203632 226.17585922 -161.44966507 224.06085968 C-161.54103542 212.46127698 -161.30300923 202.89006922 -155.84017944 192.38768005 C-155.50908739 191.75045328 -155.17799534 191.11322651 -154.83687019 190.45668983 C-153.9885531 188.96432407 -153.0347609 187.53329134 -152.07455444 186.1103363 C-151.36283081 185.040495 -150.65110718 183.97065369 -149.91781616 182.86839294 C-149.14199666 181.7289482 -148.36611564 180.58954534 -147.59017944 179.45018005 C-146.75695642 178.2055617 -145.92513256 176.96000575 -145.09457397 175.71360779 C-143.30114111 173.02459333 -141.5017366 170.33971255 -139.69857788 167.6572113 C-135.17775175 160.91934808 -130.73838023 154.12767564 -126.28683472 147.34394836 C-123.6284565 143.29500606 -120.9645775 139.24968638 -118.30111694 135.2040863 C-117.22134026 133.56363991 -116.14158765 131.92317767 -115.06185913 130.28269958 C-114.52846924 129.47230225 -113.99507935 128.66190491 -113.44552612 127.82695007 C-109.77986727 122.25710534 -106.11536478 116.68649978 -102.45077515 111.11595154 C-100.37659315 107.96298818 -98.30220107 104.81016321 -96.22763062 101.65745544 C-90.95365072 93.64235074 -85.68200843 85.6257226 -80.41439819 77.60643005 C-74.72390137 68.94412543 -69.02621358 60.2865854 -63.3210144 51.63395691 C-61.84664321 49.39748494 -60.37319462 47.16040692 -58.89974976 44.92332458 C-56.58664804 41.4129731 -54.26809647 37.90628019 -51.9453125 34.40232849 C-51.09795834 33.12264506 -50.25217704 31.84191844 -49.40814209 30.56004333 C-37.95434122 13.17243672 -37.95434122 13.17243672 -29.15267944 7.63768005 C-28.60418335 7.26514099 -28.05568726 6.89260193 -27.49057007 6.5087738 C-19.11209564 1.13820016 -9.761302 -0.06217891 0 0 Z " fill="#0A1653" transform="translate(425.8401794433594,742.6123199462891)"/>
<path d="M0 0 C1.34162704 -0.00018127 1.34162704 -0.00018127 2.71035767 -0.00036621 C22.83370732 0.03818298 43.15926327 1.50713748 62.25 8.375 C63.45011719 8.80554688 64.65023438 9.23609375 65.88671875 9.6796875 C99.61302173 22.2737418 123.28520208 45.79939569 138.25 78.375 C154.93036384 117.22348924 156.41105644 162.1455958 150.25 203.375 C150.04251755 204.90749106 149.83544849 206.44003819 149.62890625 207.97265625 C145.36359564 237.43804881 131.71741936 264.93664044 111.25 286.375 C110.72535156 286.9628125 110.20070313 287.550625 109.66015625 288.15625 C88.61210232 310.86458299 56.1221583 321.0077143 26.25 324.375 C25.01660889 324.54394775 23.78321777 324.71289551 22.51245117 324.88696289 C-15.14267463 329.59270614 -58.19284301 323.19436445 -89.359375 300.47265625 C-91.87835174 298.49737169 -94.32375015 296.46297463 -96.75 294.375 C-97.595625 293.65183594 -98.44125 292.92867187 -99.3125 292.18359375 C-128.3456459 266.73533324 -143.12632433 227.38361257 -145.75 189.375 C-147.01560224 163.13040626 -147.39027953 136.15116329 -141.75 110.375 C-141.53569336 109.36743652 -141.32138672 108.35987305 -141.10058594 107.32177734 C-135.8657579 83.44501802 -126.45378149 59.59730708 -109.75 41.375 C-108.91855469 40.46234375 -108.08710937 39.5496875 -107.23046875 38.609375 C-79.03530179 9.05192326 -39.6166404 -0.08254518 0 0 Z " fill="#4E75FE" transform="translate(1579.75,850.625)"/>
<path d="M0 0 C1.3303125 0.18175781 1.3303125 0.18175781 2.6875 0.3671875 C25.76362513 3.6541937 45.72452577 18.33542745 59.796875 36.29296875 C71.62914362 52.49449253 86.6393291 78.17764442 85 99 C84.00777176 102.11383769 83.0586082 102.96280754 80.25195312 104.74389648 C72.4635541 108.5356459 64.69699252 111.73612992 56.4447937 114.42715454 C52.95605793 115.56689107 49.48045718 116.74559437 46.00390625 117.921875 C45.27204605 118.16891678 44.54018585 118.41595856 43.78614807 118.67048645 C35.27798719 121.55809872 26.85863859 124.68198573 18.4375 127.8125 C8.70346662 131.42835622 -1.03275951 135.03184713 -10.81640625 138.51171875 C-11.62781067 138.80036301 -12.43921509 139.08900726 -13.27520752 139.38639832 C-14.91153985 139.96827786 -16.54789235 140.55010068 -18.18426514 141.13186646 C-37.60791314 148.04057278 -56.83181882 155.41357505 -76 163 C-76.29863607 170.79545934 -70.78033392 175.74408265 -65.921875 181.43359375 C-52.7370221 195.52185324 -33.10591051 203.50759404 -13.99609375 204.21484375 C9.62842052 204.77895574 30.12966033 199.16228653 50.50708008 187.20092773 C55.619246 184.30495058 59.10436457 183.14709392 65 184 C69.02214795 186.74174099 70.81273602 191.08288747 72.875 195.375 C73.21724609 196.0774585 73.55949219 196.77991699 73.91210938 197.50366211 C74.95477925 199.66302753 75.98007514 201.82981002 77 204 C77.31356445 204.6604834 77.62712891 205.3209668 77.95019531 206.00146484 C83.74813283 218.3291489 83.74813283 218.3291489 83 225 C75.14687018 237.01965147 54.85890403 242.55349324 42 247 C40.94655396 247.37668823 40.94655396 247.37668823 39.87182617 247.76098633 C34.37796809 249.67683332 28.89909713 250.9773412 23.1875 252.0625 C22.37474609 252.22298828 21.56199219 252.38347656 20.72460938 252.54882812 C19.03229296 252.87880995 17.33800355 253.19880012 15.64208984 253.50976562 C13.88814738 253.83520607 12.13815226 254.18273303 10.39306641 254.55273438 C1.51040855 256.29400368 -7.30520695 256.37225389 -16.32373047 256.37060547 C-18.96779403 256.37494712 -21.61013968 256.4112888 -24.25390625 256.44921875 C-59.0553617 256.67889326 -90.9950939 244.04955442 -116.125 219.921875 C-132.26926572 203.84235901 -140.89986799 183.04342076 -146.25 161.25 C-146.4135498 160.58919434 -146.57709961 159.92838867 -146.74560547 159.24755859 C-154.69520712 124.81059693 -148.74057697 83.99188992 -130 54 C-129.64776367 53.43200684 -129.29552734 52.86401367 -128.93261719 52.27880859 C-113.40220085 27.69704988 -88.89321564 9.93332003 -61 2 C-59.741875 1.62875 -58.48375 1.2575 -57.1875 0.875 C-38.76321142 -3.30216664 -18.52163485 -3.82277929 0 0 Z " fill="#4E75FE" transform="translate(1091,926)"/>
<path d="M0 0 C1.59229179 -0.01925285 1.59229179 -0.01925285 3.2167511 -0.03889465 C4.93706795 -0.04997505 4.93706795 -0.04997505 6.69213867 -0.0612793 C8.46230598 -0.07338692 8.46230598 -0.07338692 10.26823425 -0.08573914 C12.76734956 -0.09957719 15.26648375 -0.11030059 17.765625 -0.11816406 C21.58459301 -0.13538301 25.40269681 -0.17927417 29.22143555 -0.22338867 C31.64916356 -0.2335151 34.07689892 -0.24203136 36.50463867 -0.2487793 C37.64544388 -0.26628738 38.78624908 -0.28379547 39.96162415 -0.30183411 C46.17503375 -0.28486117 50.17837325 -0.18095573 54.79760742 4.17700195 C56.799687 7.36396063 57.04336396 9.81774602 57.02961731 13.54908752 C57.03045885 14.65551416 57.03130039 15.7619408 57.03216743 16.90189552 C57.02284124 18.12778074 57.01351505 19.35366596 57.00390625 20.61669922 C57.00196196 21.93496389 57.00001766 23.25322857 56.99801445 24.61144066 C56.9922887 28.33626298 56.97392939 32.06093783 56.95379615 35.78570628 C56.93383417 39.88719246 56.92541577 43.98870418 56.91572571 48.09022522 C56.89924808 54.56561785 56.87835641 61.04097695 56.8532595 67.51634187 C56.801155 80.97729908 56.77303269 94.43823365 56.75060821 107.89926982 C56.71013187 132.11022725 56.64882598 156.32107502 56.5685802 180.53192987 C56.55734602 183.92216519 56.54622051 187.31240085 56.53515625 190.70263672 C56.53185195 191.71251067 56.53185195 191.71251067 56.5284809 192.74278612 C56.49260335 203.79824928 56.46797639 214.85371173 56.4472604 225.90921252 C56.42542278 237.44237668 56.39215119 248.97546021 56.34890586 260.50856501 C56.32521237 266.91324755 56.306324 273.31785283 56.29999352 279.72257805 C56.29391181 285.69651366 56.27380212 291.67024456 56.24333191 297.644104 C56.23462933 299.81431719 56.23081268 301.98455716 56.23259926 304.15478706 C56.24272095 322.13296086 54.65652282 339.47451303 49.61010742 356.80200195 C49.3089502 357.85049316 49.00779297 358.89898438 48.69750977 359.97924805 C38.66005386 393.74159974 17.82998474 422.03343507 -13.03833008 439.35668945 C-27.12819465 446.96189358 -42.51062097 451.30144672 -58.20239258 454.17700195 C-59.28520508 454.38196289 -60.36801758 454.58692383 -61.48364258 454.7980957 C-72.72875709 456.81609274 -72.72875709 456.81609274 -77.20239258 456.17700195 C-80.36193563 453.63563037 -81.91780144 452.03077536 -83.20239258 448.17700195 C-83.29871461 445.80093723 -83.33314262 443.42220485 -83.33520508 441.04418945 C-83.33670563 440.33893631 -83.33820618 439.63368317 -83.3397522 438.90705872 C-83.34210444 436.62198173 -83.33587224 434.33706314 -83.32739258 432.05200195 C-83.325177 431.28022614 -83.32296143 430.50845032 -83.32067871 429.71328735 C-83.2583759 411.35672211 -83.2583759 411.35672211 -82.95239258 403.86450195 C-82.8827832 402.04499023 -82.8827832 402.04499023 -82.81176758 400.1887207 C-82.07198207 396.5324731 -80.81387448 394.80733932 -78.20239258 392.17700195 C-74.50110565 390.46344319 -70.92667438 389.37084866 -66.99145508 388.31762695 C-49.86084041 383.70408393 -35.32898065 375.95639238 -26.20239258 360.17700195 C-22.55345751 353.70748202 -20.42921455 346.93790946 -18.51489258 339.80200195 C-18.31234863 339.04798096 -18.10980469 338.29395996 -17.90112305 337.51708984 C-15.06226457 326.35935792 -13.90478202 315.38167348 -13.95756531 303.88526917 C-13.95530073 302.61249381 -13.95303616 301.33971845 -13.95070297 300.02837414 C-13.94466618 296.53480016 -13.95079185 293.04134182 -13.95901358 289.54777634 C-13.96565399 285.76530122 -13.96058201 281.98283966 -13.95678711 278.20036316 C-13.95158532 271.65862085 -13.95303884 265.11690825 -13.95856285 258.5751667 C-13.96680553 248.2347333 -13.95552013 237.89436326 -13.94136047 227.55393982 C-13.9367606 224.01072422 -13.93231009 220.46750844 -13.92792225 216.92429256 C-13.92682411 216.03910167 -13.92572597 215.15391077 -13.92459455 214.2418959 C-13.91244392 204.18779636 -13.90487433 194.1336948 -13.89892578 184.07958984 C-13.89837772 183.16142465 -13.89782966 182.24325945 -13.89726499 181.29727107 C-13.88879027 166.39033496 -13.89215299 151.48341686 -13.89808013 136.57648063 C-13.90369447 121.2552924 -13.89018422 105.9341951 -13.86052734 90.61303467 C-13.84298413 81.16970799 -13.84135523 71.72664417 -13.86017249 62.28331869 C-13.87176433 55.81937994 -13.86535358 49.35561898 -13.84470328 42.89170337 C-13.83336921 39.16219493 -13.83023861 35.43314448 -13.84887886 31.70365524 C-13.86889312 27.66201906 -13.85041361 23.62147332 -13.82817078 19.57984924 C-13.84020827 18.39999988 -13.85224577 17.22015051 -13.86464804 16.00454813 C-13.76507928 7.16319633 -13.76507928 7.16319633 -10.85078144 3.464324 C-7.20910458 0.31913339 -4.64928926 0.04897417 0 0 Z " fill="#4F76FE" transform="translate(859.202392578125,797.822998046875)"/>
<path d="M0 0 C7.11632235 6.26342978 12.34534327 12.58940012 17.0859375 20.8359375 C17.53839844 21.60421875 17.99085938 22.3725 18.45703125 23.1640625 C21.28386157 28.34218159 23.13398313 33.70999853 24.8359375 39.3359375 C25.04686035 40.02381348 25.2577832 40.71168945 25.47509766 41.42041016 C28.33602489 51.37850225 28.29817782 61.58116304 28.32617188 71.86547852 C28.33584283 74.0025174 28.36695228 76.13857728 28.3984375 78.27539062 C28.58416926 102.2128863 20.629322 125.19315086 4.0859375 142.8359375 C-12.84202712 159.18918727 -33.81819313 164.22551772 -56.79760742 164.15161133 C-58.84673083 164.14844497 -60.89441204 164.17204856 -62.94335938 164.19726562 C-81.48305662 164.28756493 -99.32651261 159.57334442 -113.9140625 147.8359375 C-114.95626953 147.03736328 -114.95626953 147.03736328 -116.01953125 146.22265625 C-131.46933859 133.70143908 -139.74610168 113.07899766 -142.9140625 93.8359375 C-143.03025294 91.22675789 -143.10159963 88.64466482 -143.1171875 86.03515625 C-143.12288757 85.28112015 -143.12858765 84.52708405 -143.13446045 83.75019836 C-143.14388603 82.15240873 -143.1504347 80.55459987 -143.15429688 78.95678711 C-143.16387914 76.5691271 -143.19487173 74.18237562 -143.2265625 71.79492188 C-143.40571195 45.74270418 -136.25662217 21.98264566 -118.1640625 2.7109375 C-89.240415 -25.16194651 -30.28369539 -25.03597922 0 0 Z " fill="#FEFBFC" transform="translate(1640.9140625,940.1640625)"/>
<path d="M0 0 C1.04481033 -0.01283524 2.08962067 -0.02567047 3.16609192 -0.03889465 C4.29939438 -0.04628159 5.43269684 -0.05366852 6.6003418 -0.0612793 C8.34289497 -0.07338692 8.34289497 -0.07338692 10.12065125 -0.08573914 C12.58286034 -0.09958831 15.04508871 -0.11030672 17.50732422 -0.11816406 C21.27372595 -0.13537996 25.03925087 -0.17926062 28.80541992 -0.22338867 C31.19538741 -0.23351502 33.58536238 -0.2420313 35.9753418 -0.2487793 C37.10257156 -0.26628738 38.22980133 -0.28379547 39.39118958 -0.30183411 C47.19450244 -0.28018008 47.19450244 -0.28018008 51.17529297 2.01611328 C54.23115059 5.66082367 54.11341994 8.7652971 54.11848831 13.3546648 C54.12232946 14.6562443 54.1261706 15.95782381 54.13012815 17.29884511 C54.12934785 18.75186786 54.12846906 20.20489057 54.12750244 21.65791321 C54.13008525 23.19477751 54.13309817 24.73164115 54.13650584 26.26850384 C54.144589 30.50293251 54.14636614 34.73734424 54.14710331 38.9717797 C54.14895157 43.53426118 54.15649773 48.09673382 54.16323853 52.65921021 C54.17683148 62.64052085 54.182848 72.62182748 54.18724918 82.60314584 C54.19000985 88.83272846 54.19424687 95.06230953 54.19875336 101.2918911 C54.21094703 118.53192834 54.22124631 135.77196434 54.22462845 153.01200581 C54.2249578 154.6677122 54.2249578 154.6677122 54.2252938 156.35686721 C54.22562122 158.01658502 54.22562122 158.01658502 54.22595525 159.70983249 C54.22639872 161.95206281 54.22684528 164.19429312 54.22729492 166.43652344 C54.22751635 167.54875238 54.22773778 168.66098132 54.22796592 169.80691417 C54.2319151 187.83459775 54.24937234 205.86224092 54.27265444 223.88990889 C54.29635216 242.38833745 54.30882957 260.88674572 54.30999637 279.38518971 C54.31091399 289.77556157 54.31668829 300.16588079 54.33481598 310.55623817 C54.35019563 319.40279994 54.35535006 328.24929282 54.34707788 337.09586541 C54.34316385 341.6110006 54.34413757 346.12599696 54.35813522 350.64111519 C54.37082906 354.77338524 54.3697166 358.9054115 54.35754451 363.03768101 C54.35557965 364.53365281 54.3587022 366.02964163 54.36738887 367.5255895 C54.37844276 369.55763676 54.36922407 371.5897641 54.35899734 373.62181568 C54.35959443 374.75099661 54.36019152 375.88017753 54.3608067 377.04357606 C53.92888693 380.66471996 52.87363139 383.07100662 50.98706055 386.17700195 C47.63719201 388.09613277 44.7265086 388.43125666 40.90893555 388.45166016 C39.92441406 388.46119217 38.93989258 388.47072418 37.92553711 388.48054504 C36.87333984 388.47963364 35.82114258 388.47872223 34.73706055 388.4777832 C33.64619141 388.48206833 32.55532227 388.48635345 31.43139648 388.49076843 C29.12834364 388.49650341 26.82527269 388.49701814 24.5222168 388.49267578 C20.99976749 388.48951336 17.47815623 388.51299477 13.95581055 388.53833008 C11.71622827 388.5406029 9.47664374 388.54130665 7.23706055 388.5402832 C6.18486328 388.54949295 5.13266602 388.5587027 4.04858398 388.56819153 C-5.43592698 388.5081857 -5.43592698 388.5081857 -9.01293945 385.17700195 C-10.96266232 381.27552382 -11.26481396 378.06733109 -11.27020836 373.73483276 C-11.27665725 372.42517107 -11.28310614 371.11550938 -11.28975046 369.76616096 C-11.28680824 368.31440314 -11.28367281 366.86264571 -11.28036499 365.41088867 C-11.28410133 363.86745926 -11.28870278 362.32403174 -11.29409564 360.78060722 C-11.3063427 356.53734676 -11.30606317 352.29416504 -11.30370688 348.05089092 C-11.30329916 343.47550424 -11.31433349 338.90014295 -11.32382202 334.32476807 C-11.34044138 325.36079811 -11.34593195 316.39685446 -11.34704678 307.43287039 C-11.34799663 300.14898904 -11.35210374 292.86511639 -11.35844803 285.58123779 C-11.37606149 264.93986682 -11.38528651 244.29851665 -11.38378708 223.65713811 C-11.38370717 222.5441424 -11.38362726 221.43114668 -11.38354492 220.28442383 C-11.38346316 219.17007296 -11.3833814 218.0557221 -11.38329716 216.90760303 C-11.3824838 198.8373215 -11.4016338 180.76712323 -11.42982166 162.6968658 C-11.45852212 144.1520439 -11.47236358 125.60726266 -11.4706341 107.06241798 C-11.46996931 96.64694325 -11.47550077 86.23155584 -11.4969902 75.81610107 C-11.51516451 66.95050889 -11.51958016 58.08504364 -11.50597136 49.21944094 C-11.49942323 44.69425244 -11.49939078 40.16930774 -11.51667786 35.64414215 C-11.53233213 31.50391723 -11.52962393 27.36413096 -11.51210959 23.22391725 C-11.50902278 21.72398575 -11.51273494 20.22402213 -11.52382974 18.72412848 C-11.53788872 16.68918657 -11.52500853 14.65411144 -11.51071739 12.61917114 C-11.51115213 11.48765688 -11.51158686 10.35614262 -11.51203477 9.19034004 C-10.90078664 5.49986811 -9.59124867 3.83655013 -7.01293945 1.17700195 C-4.51695603 -0.07098976 -2.79304723 0.02982086 0 0 Z " fill="#5076FE" transform="translate(1226.012939453125,787.822998046875)"/>
<path d="M0 0 C1.5672155 -0.02409439 1.5672155 -0.02409439 3.16609192 -0.04867554 C7.94649661 -0.09306697 12.72676171 -0.13418771 17.50732422 -0.15722656 C20.03020446 -0.17379347 22.55303764 -0.20109274 25.07568359 -0.23925781 C28.70915124 -0.2939608 32.34151808 -0.3158914 35.9753418 -0.33056641 C37.10257156 -0.35323578 38.22980133 -0.37590515 39.39118958 -0.39926147 C40.9725898 -0.39498642 40.9725898 -0.39498642 42.5859375 -0.390625 C43.97254326 -0.40275528 43.97254326 -0.40275528 45.38716125 -0.41513062 C49.13198102 0.46061747 50.5572541 2.2600034 52.98706055 5.19287109 C53.6126557 8.23300797 53.6126557 8.23300797 53.61347294 11.70030308 C53.62044055 12.34307917 53.62740815 12.98585525 53.6345869 13.64810941 C53.65185296 15.80520271 53.63345715 17.96050481 53.61524963 20.11756897 C53.62029407 21.67821631 53.6275221 23.23885787 53.63674778 24.7994861 C53.65571175 29.09045594 53.64341323 33.38085744 53.62602484 37.67181313 C53.61267599 42.29832441 53.62807894 46.92475115 53.6398468 51.55125427 C53.65824589 60.61522302 53.64969614 69.6789765 53.63175858 78.74293859 C53.61774562 86.10740848 53.61383697 93.47181985 53.61720085 100.8363018 C53.61767829 101.88355601 53.61815574 102.93081022 53.61864765 104.0097994 C53.61967395 106.13711482 53.62072931 108.26443023 53.62181341 110.39174562 C53.63038496 129.2109953 53.61369025 148.03014088 53.58398438 166.84936523 C53.55514177 185.12187064 53.5480648 203.39422611 53.56347656 221.66674805 C53.58022637 241.5529924 53.58428571 261.43916554 53.5667662 281.32541174 C53.56492176 283.4446932 53.56308704 285.56397467 53.56126213 287.68325615 C53.56035004 288.72605204 53.55943795 289.76884794 53.55849822 290.84324371 C53.55288555 298.20174744 53.55620677 305.56021648 53.56280708 312.91871834 C53.57052754 321.88207565 53.56383411 330.84528519 53.53863204 339.80861265 C53.5261075 344.38429385 53.52002614 348.95974465 53.53117371 353.53543472 C53.54117771 357.72065659 53.53283916 361.90541792 53.50959253 366.0905835 C53.50441181 367.60798403 53.50603341 369.12542548 53.51498718 370.64280844 C53.52611776 372.69952306 53.51282297 374.75466283 53.49321842 376.81128025 C53.49202694 377.95532528 53.49083546 379.09937032 53.48960787 380.27808338 C52.87358951 383.85100608 51.82441053 385.00332832 48.98706055 387.19287109 C46.06097057 388.16823442 44.096016 388.34135767 41.04418945 388.38574219 C39.53714951 388.40983658 39.53714951 388.40983658 37.99966431 388.43441772 C33.41506681 388.47891102 28.83061241 388.51991409 24.24584961 388.54296875 C21.82680656 388.55954644 19.40781284 388.58685991 16.98901367 388.625 C13.50112502 388.67970638 10.01438266 388.7016321 6.52612305 388.71630859 C5.44577789 388.73897797 4.36543274 388.76164734 3.25234985 388.78500366 C-4.24387806 388.76387154 -4.24387806 388.76387154 -8.17163086 385.84765625 C-10.98898474 381.7856162 -11.13952665 378.82951067 -11.14716053 373.99679756 C-11.15161837 372.69111796 -11.15607622 371.38543837 -11.16066915 370.04019272 C-11.16057985 368.58255075 -11.16038999 367.12490879 -11.16011047 365.66726685 C-11.16340893 364.12556486 -11.16713446 362.58386374 -11.17125195 361.04216373 C-11.18128183 356.79440493 -11.18499032 352.54666027 -11.18764126 348.29889131 C-11.19154128 343.72211241 -11.20111969 339.14534474 -11.20985413 334.568573 C-11.22962507 323.51149454 -11.23968465 312.45441515 -11.24858192 301.39732343 C-11.25296299 296.19383548 -11.25833019 290.99034856 -11.26357079 285.78686142 C-11.2805822 268.49621097 -11.29507793 251.20556117 -11.30231953 233.91490364 C-11.3042295 229.42699304 -11.30614982 224.93908245 -11.30810547 220.45117188 C-11.30858921 219.33569001 -11.30907295 218.22020814 -11.30957135 217.07092379 C-11.3178775 198.98758622 -11.34322468 180.90431467 -11.37568615 162.82100596 C-11.40872152 144.26721189 -11.42676502 125.71345143 -11.42996377 107.1596278 C-11.43213192 96.73741046 -11.44092532 86.31528947 -11.46642494 75.89310074 C-11.48808371 67.02014722 -11.49620614 58.14731343 -11.48645816 49.27433647 C-11.48189968 44.74510662 -11.4838892 40.21612406 -11.5032196 35.6869278 C-11.52075377 31.54293033 -11.51993356 27.39936235 -11.50432231 23.25536095 C-11.50193135 21.75402052 -11.50634634 20.25265111 -11.51815096 18.75135519 C-11.53317823 16.71449834 -11.52125707 14.67749555 -11.50792408 12.64062691 C-11.50890089 11.5080285 -11.5098777 10.37543009 -11.51088411 9.20851052 C-10.90113924 5.51578956 -9.5928977 3.85346821 -7.01293945 1.19287109 C-4.52010171 -0.05354778 -2.78953132 0.03890874 0 0 Z " fill="#4E75FE" transform="translate(1342.012939453125,787.80712890625)"/>
<path d="M0 0 C28.05 0 56.1 0 85 0 C85.16121214 33.58138373 85.16121214 33.58138373 85.1953125 47.70898438 C85.21899978 57.44401529 85.24676846 67.17890719 85.30175781 76.91381836 C85.34179618 84.00533594 85.367473 91.09674019 85.37635398 98.18836766 C85.38154018 101.93867587 85.39361184 105.68866005 85.42292023 109.43886375 C85.45035924 112.97902939 85.45838859 116.51874194 85.45243073 120.05900383 C85.45403144 121.956662 85.4754036 123.85427245 85.49768066 125.75180054 C85.43641131 138.70168542 82.21486094 150.47079865 73.1171875 159.96484375 C68.81652967 163.95349307 64.37231092 166.69423692 59 169 C58.21625 169.37125 57.4325 169.7425 56.625 170.125 C47.03776828 173.32074391 37.42526478 173.32335371 27.4375 173.25 C26.67955139 173.24656586 25.92160278 173.24313171 25.14068604 173.23959351 C8.1254133 173.14893117 -9.41770586 172.79114707 -25 165 C-25 144.54 -25 124.08 -25 103 C-16.75 104.32 -8.5 105.64 0 107 C0 71.69 0 36.38 0 0 Z " fill="#FEFBFB" transform="translate(513,798)"/>
<path d="M0 0 C2.29522574 1.70414754 4.41290358 3.49504326 6.5234375 5.421875 C7.44576172 6.24171875 7.44576172 6.24171875 8.38671875 7.078125 C13.21986969 11.62192987 16.92051593 16.87480268 20.5234375 22.421875 C21.08546875 23.26492188 21.6475 24.10796875 22.2265625 24.9765625 C23.5234375 27.421875 23.5234375 27.421875 23.5234375 31.421875 C3.311333 38.7739391 -16.92007355 46.04464405 -37.27734375 52.98681641 C-41.34468583 54.37506422 -45.40850245 55.77348292 -49.47221375 57.1723175 C-53.26175533 58.47629273 -57.05225313 59.77747317 -60.84292603 61.07815552 C-62.71692564 61.72164794 -64.59060602 62.36607084 -66.46395874 63.01144409 C-69.08565756 63.91419763 -71.70866609 64.81303979 -74.33203125 65.7109375 C-75.12641602 65.98540207 -75.92080078 66.25986664 -76.73925781 66.54264832 C-82.24837504 68.421875 -82.24837504 68.421875 -84.4765625 68.421875 C-83.88653405 48.15439789 -79.3988782 27.97412035 -65.4765625 12.421875 C-64.84492187 11.68710937 -64.21328125 10.95234375 -63.5625 10.1953125 C-48.40810198 -6.28165117 -19.64118147 -12.51583172 0 0 Z " fill="#FDFBFC" transform="translate(1088.4765625,982.578125)"/>
</svg>
